<svg xmlns="http://www.w3.org/2000/svg" width="21.375" height="14.25" viewBox="0 0 21.375 14.25"><path d="M12.357-6.643a2.282,2.282,0,0,1-1.67.705,2.282,2.282,0,0,1-1.67-.705,2.282,2.282,0,0,1-.705-1.67v-.111a1.782,1.782,0,0,0,.631.111,1.675,1.675,0,0,0,1.225-.52,1.675,1.675,0,0,0,.52-1.225,1.782,1.782,0,0,0-.111-.631h.111a2.282,2.282,0,0,1,1.67.705,2.282,2.282,0,0,1,.705,1.67A2.282,2.282,0,0,1,12.357-6.643Zm8.906-1.039a1.4,1.4,0,0,1,.111.557,1.4,1.4,0,0,1-.111.557A12.4,12.4,0,0,1,16.885-1.8a11.29,11.29,0,0,1-6.2,1.8A11.3,11.3,0,0,1,6.4-.835a12.04,12.04,0,0,1-3.655-2.3A12.633,12.633,0,0,1,.111-6.568,1.4,1.4,0,0,1,0-7.125a1.4,1.4,0,0,1,.111-.557A12.4,12.4,0,0,1,4.49-12.45a11.29,11.29,0,0,1,6.2-1.8,11.29,11.29,0,0,1,6.2,1.8A12.4,12.4,0,0,1,21.264-7.682Zm-7.218-3.989a4.576,4.576,0,0,0-3.358-1.392,4.576,4.576,0,0,0-3.358,1.392A4.576,4.576,0,0,0,5.938-8.312,4.576,4.576,0,0,0,7.329-4.954a4.576,4.576,0,0,0,3.358,1.392,4.576,4.576,0,0,0,3.358-1.392,4.576,4.576,0,0,0,1.392-3.358A4.576,4.576,0,0,0,14.046-11.671ZM5.14-2.783a10.235,10.235,0,0,0,5.548,1.6,10.235,10.235,0,0,0,5.548-1.6,10.9,10.9,0,0,0,3.952-4.342,10.577,10.577,0,0,0-2.078-2.728,11.035,11.035,0,0,0-2.746-2.06,5.653,5.653,0,0,1,1.262,3.6,5.717,5.717,0,0,1-1.744,4.193,5.717,5.717,0,0,1-4.193,1.744A5.717,5.717,0,0,1,6.494-4.119,5.717,5.717,0,0,1,4.75-8.312a5.653,5.653,0,0,1,1.262-3.6,11.035,11.035,0,0,0-2.746,2.06A10.577,10.577,0,0,0,1.188-7.125,10.9,10.9,0,0,0,5.14-2.783Z" transform="translate(0 14.25)"/></svg>